<svg xmlns="http://www.w3.org/2000/svg" width="232" height="64" viewBox="0 0 232 64">
  <defs>
    <style>
      .cls-1 {
        fill: #353535;
        fill-rule: evenodd;
      }
    </style>
  </defs>
  <path id="Градусник" class="cls-1" d="M201.353,45.216a6.759,6.759,0,0,1-6.765-6.721,7.987,7.987,0,0,1,1.807-4.566V19.206a4.957,4.957,0,0,1,9.914,0V34a7.594,7.594,0,0,1,1.762,4.5A6.719,6.719,0,0,1,201.353,45.216Zm0-1.984a4.763,4.763,0,0,1-4.76-4.737,5.21,5.21,0,0,1,1.83-3.749V19.206a2.975,2.975,0,0,1,5.949,0v15.6a5.039,5.039,0,0,1,1.738,3.685A4.76,4.76,0,0,1,201.353,43.232Zm2.682-4.876a2.75,2.75,0,1,1-3.643-2.591v-16.7a0.941,0.941,0,1,1,1.881,0V35.794A2.745,2.745,0,0,1,204.035,38.355Zm5.226-16.289h3.966a0.992,0.992,0,0,1,0,1.984h-3.966A0.992,0.992,0,0,1,209.261,22.067Zm0-3.969h3.966a0.992,0.992,0,0,1,0,1.984h-3.966A0.992,0.992,0,0,1,209.261,18.1Zm0,7.937h3.966a0.992,0.992,0,0,1,0,1.984h-3.966A0.992,0.992,0,0,1,209.261,26.035Zm0,3.968h3.966a0.992,0.992,0,0,1,0,1.984h-3.966A0.992,0.992,0,0,1,209.261,30Zm-7.75-23.018a23.514,23.514,0,1,1-23.5,23.513A23.507,23.507,0,0,1,201.511,6.986Zm0,45.044A21.53,21.53,0,1,1,223.027,30.5,21.546,21.546,0,0,1,201.511,52.03Z"/>
  <path id="Корова" class="cls-1" d="M159.774,30a2.4,2.4,0,0,1-2.109,1.039,9.284,9.284,0,0,1-3.228-.833,16.916,16.916,0,0,1-1.563,8.278,5.154,5.154,0,0,1,.513,3.055c-0.484,3.359-4.246,5.2-8.451,5.2s-7.949-1.838-8.407-5.2a5.117,5.117,0,0,1,.328-2.6,17.21,17.21,0,0,1-1.772-8.656,9.023,9.023,0,0,1-3.038.753A2.4,2.4,0,0,1,129.938,30a2.3,2.3,0,0,1-.161-2.2c0.805-1.9,3.562-2.721,4.71-2.988l0.095-.022c-1.387-2.878-.717-7.541-0.2-9.118l3.032,0.252c0.055,1,.759,2.858,3.406,4.97l1.572,1.083a12.1,12.1,0,0,1,4.645-.02l1.677-1.156c2.647-2.112,3.351-3.975,3.406-4.97l3.032-.252c0.524,1.587,1.2,6.292-.222,9.166l0.292,0.068c1.147,0.266,3.9,1.091,4.709,2.988A2.3,2.3,0,0,1,159.774,30ZM134.92,26.75s-2.835.658-3.333,1.831,3.127-.13,3.8-0.687A2.323,2.323,0,0,1,134.92,26.75Zm3.268,0.068c-1.737,2.733-1.563,6.951.464,11.282l0.363,0.775-0.315.8a3.159,3.159,0,0,0-.206,1.6c0.326,2.392,3.568,3.481,6.442,3.481s6.143-1.094,6.489-3.5a3.177,3.177,0,0,0-.327-1.89l-0.413-.833,0.375-.851c1.863-4.217,1.953-8.3.242-10.932-1.285-1.975-3.544-3.019-6.531-3.019C141.748,23.73,139.472,24.8,138.188,26.818ZM158.11,28.58c-0.5-1.173-3.333-1.831-3.333-1.831a2.323,2.323,0,0,1-.469,1.143C154.983,28.45,158.608,29.753,158.11,28.58ZM139.7,22.531s-3.564-2.457-3.7-4.975c-0.4,2.158-.579,5.569.7,6.927A21.833,21.833,0,0,1,139.7,22.531Zm10.144-.093s3.564-2.457,3.7-4.975c0.4,2.158.579,5.569-.7,6.927A21.823,21.823,0,0,0,149.843,22.438ZM144.511,6.985a23.514,23.514,0,1,1-23.5,23.514A23.507,23.507,0,0,1,144.511,6.985Zm0,45.044A21.53,21.53,0,1,1,166.027,30.5,21.546,21.546,0,0,1,144.511,52.03Z"/>
  <path id="Листик" class="cls-1" d="M87.438,46.5s-22.064-10.107,0-32.491C109.5,36.39,87.438,46.5,87.438,46.5Zm7.456-17.051-6.485,4.129h0l-0.02,3.652,6.84-4.373A13.317,13.317,0,0,0,94.894,29.446ZM79.626,32.611L86.4,37.06V33.467L80,29.347A13.559,13.559,0,0,0,79.626,32.611Zm6.779-1.5V27.5l-4.366-3.352a21.838,21.838,0,0,0-1.452,3.215Zm0-6.04V18.076a39.631,39.631,0,0,0-3.329,4.384Zm1.984,0.271,3.6-2.578a39.469,39.469,0,0,0-3.6-4.779v7.357Zm0.02,2.285h0l-0.02,3.651,5.934-3.819A21.549,21.549,0,0,0,93,24.466ZM94.8,35.459l-6.392,4.069h0l-0.02,4.132A15.229,15.229,0,0,0,94.8,35.459Zm-8.4,8.133V39.42l-6.366-4.1C81.136,39.432,84.321,42.192,86.4,43.592ZM87.5,6.986A23.514,23.514,0,1,1,63.986,30.5,23.515,23.515,0,0,1,87.5,6.986Zm0,45.044a21.53,21.53,0,1,1,21.53-21.53A21.554,21.554,0,0,1,87.5,52.03Z"/>
  <path id="Мороженко" class="cls-1" d="M36.454,16.447a8.575,8.575,0,0,0-14.639,6.064V37.19a0.809,0.809,0,0,0,.809.809H38.157a0.809,0.809,0,0,0,.809-0.809V22.511A8.518,8.518,0,0,0,36.454,16.447Zm0.894,19.934H23.433V25.489c0.045,0.047.092,0.1,0.143,0.156a2.618,2.618,0,0,0,4.309,0,1.207,1.207,0,0,1,.946-0.6,1.061,1.061,0,0,1,.309.427,10.672,10.672,0,0,1,.488,1.226,9.72,9.72,0,0,0,.7,1.648,1.752,1.752,0,0,0,3.237,0,9.728,9.728,0,0,0,.7-1.648,10.6,10.6,0,0,1,.488-1.226,1.059,1.059,0,0,1,.309-0.427,1.208,1.208,0,0,1,.946.6,3.174,3.174,0,0,0,1.346,1v9.732Zm-9.006,8.58a2.049,2.049,0,0,0,4.1,0V38.8h-4.1v6.164ZM30.5,6.8A23.7,23.7,0,1,1,6.8,30.5,23.7,23.7,0,0,1,30.5,6.8Zm0,45.4A21.7,21.7,0,1,1,52.2,30.5,21.726,21.726,0,0,1,30.5,52.2Z"/>
</svg>
