<svg xmlns="http://www.w3.org/2000/svg" width="159" height="36" viewBox="0 0 159 36">
  <defs>
    <style>
      .cls-1 {
        fill: #fff;
        fill-rule: evenodd;
      }
    </style>
  </defs>
  <path id="Твитер" class="cls-1" d="M17.427,2.165A15.692,15.692,0,1,1,1.736,17.857,15.692,15.692,0,0,1,17.427,2.165Zm9.138,10.811a7.3,7.3,0,0,1-2.092.573,3.652,3.652,0,0,0,1.6-2.015,7.279,7.279,0,0,1-2.313.883,3.646,3.646,0,0,0-6.206,3.322,10.341,10.341,0,0,1-7.507-3.806A3.646,3.646,0,0,0,11.175,16.8a3.627,3.627,0,0,1-1.65-.456c0,0.015,0,.03,0,0.046a3.644,3.644,0,0,0,2.922,3.572,3.642,3.642,0,0,1-1.645.062,3.645,3.645,0,0,0,3.4,2.53,7.349,7.349,0,0,1-5.392,1.508,10.358,10.358,0,0,0,15.946-8.726q0-.237-0.011-0.471A7.41,7.41,0,0,0,26.565,12.976Z"/>
  <path id="ВК" class="cls-1" d="M140.865,2.228a15.692,15.692,0,1,1-15.692,15.692A15.691,15.691,0,0,1,140.865,2.228Zm5.967,18.252a3.117,3.117,0,0,0-.757-2.2,3.7,3.7,0,0,0-2.016-1.082V17.123a2.934,2.934,0,0,0,1.371-1.144,3.2,3.2,0,0,0,.5-1.77,3.114,3.114,0,0,0-.362-1.518,2.635,2.635,0,0,0-1.091-1.05,4.307,4.307,0,0,0-1.446-.477,16.411,16.411,0,0,0-2.269-.115h-4.8v13.6H141.4a8.817,8.817,0,0,0,2.332-.256,4.793,4.793,0,0,0,1.686-.857,3.641,3.641,0,0,0,1.032-1.268,3.941,3.941,0,0,0,.383-1.783h0Zm-4.372-5.585a1.543,1.543,0,0,0-.169-0.677,1.008,1.008,0,0,0-.527-0.5,2.105,2.105,0,0,0-.8-0.162q-0.462-.014-1.374-0.013h-0.237v2.877h0.43c0.583,0,.994-0.006,1.228-0.019a2,2,0,0,0,.727-0.19,1.1,1.1,0,0,0,.563-0.53,1.89,1.89,0,0,0,.157-0.786h0Zm0.856,5.523a1.647,1.647,0,0,0-.255-0.985,1.536,1.536,0,0,0-.767-0.539,2.537,2.537,0,0,0-.853-0.134c-0.362-.01-0.849-0.013-1.456-0.013h-0.63v3.4h0.184q1.332,0,1.842-.019a2.878,2.878,0,0,0,1.041-.245,1.363,1.363,0,0,0,.68-0.589A1.789,1.789,0,0,0,143.316,20.417Z"/>
  <path id="ФБ" class="cls-1" d="M99.865,2.228A15.692,15.692,0,1,1,84.173,17.919,15.691,15.691,0,0,1,99.865,2.228Zm0.773,24.99V17.926h2.743l0.285-3.089h-3.028l0-1.856c0-.894.085-1.256,1.367-1.256h1.764V8.3h-2.792c-3.294,0-4.082,1.546-4.082,4.342v2.2H95.011v3.089H96.9v9.291h3.738Z"/>
  <path id="Инста" class="cls-1" d="M58.865,2.228A15.692,15.692,0,1,1,43.173,17.919,15.692,15.692,0,0,1,58.865,2.228Zm6.272,23.61a1.745,1.745,0,0,0,1.745-1.745V11.782a1.745,1.745,0,0,0-1.745-1.745H52.809a1.745,1.745,0,0,0-1.745,1.745V24.093a1.745,1.745,0,0,0,1.745,1.745H65.136Zm-1.375-9.1a4.921,4.921,0,1,1-9.529,0h-1.38v6.786a0.611,0.611,0,0,0,.611.611H64.529a0.611,0.611,0,0,0,.611-0.611V16.737S64.644,16.739,63.761,16.737ZM59,15.132a2.954,2.954,0,0,1,3.066,2.838A2.954,2.954,0,0,1,59,20.809,2.838,2.838,0,0,1,59,15.132Zm3.7-3.316H64.56a0.611,0.611,0,0,1,.611.611v1.864a0.611,0.611,0,0,1-.611.611H62.7a0.611,0.611,0,0,1-.611-0.611V12.427A0.611,0.611,0,0,1,62.7,11.816Z"/>
</svg>
