<svg xmlns="http://www.w3.org/2000/svg" width="96" height="64" viewBox="0 0 96 64">
  <defs>
    <style>
      .cls-1, .cls-6 {
        fill: #fff;
      }

      .cls-1, .cls-2, .cls-3, .cls-4, .cls-5, .cls-6 {
        fill-rule: evenodd;
      }

      .cls-2 {
        fill: #343434;
      }

      .cls-3 {
        fill: #e84d37;
      }

      .cls-4 {
        fill: #353535;
      }

      .cls-4, .cls-6 {
        fill-opacity: 0.99;
      }

      .cls-5 {
        fill: #333;
      }
    </style>
  </defs>
  <path id="Корзина" class="cls-1" d="M82.576,9.46l-1.2,8.912a2.033,2.033,0,0,1-1.883,1.635H68.61a2.028,2.028,0,0,1-1.879-1.635L65.262,8.085a3.675,3.675,0,0,1-.137-1.055H63a1,1,0,0,1,0-2h4a1,1,0,0,1,1,1,0.99,0.99,0,0,1-.9.979H81.067C82.172,7.01,82.84,8.141,82.576,9.46ZM68.731,17.978l-1.313-9H80.625s-0.031.2-.031,0.2l-1.186,8.788c-0.008.011-.009,0.013,0,0.013H68.731Zm0.514,3.009a1.874,1.874,0,1,1-1.874,1.874A1.874,1.874,0,0,1,69.245,20.987Zm9,0a1.874,1.874,0,1,1-1.874,1.874A1.874,1.874,0,0,1,78.246,20.987Z"/>
  <path id="Корзина-2" data-name="Корзина" class="cls-2" d="M82.576,39.46l-1.2,8.912a2.034,2.034,0,0,1-1.883,1.635H68.61a2.028,2.028,0,0,1-1.879-1.635L65.262,38.085a3.67,3.67,0,0,1-.137-1.054H63a1,1,0,1,1,0-2h4a1,1,0,0,1,1,1,0.99,0.99,0,0,1-.9.979H81.067C82.172,37.01,82.84,38.141,82.576,39.46ZM68.731,47.978l-1.313-9H80.624s-0.031.2-.031,0.2l-1.186,8.788c-0.008.011-.009,0.014,0,0.014H68.731Zm0.514,3.009a1.874,1.874,0,1,1-1.874,1.874A1.875,1.875,0,0,1,69.245,50.986Zm9,0a1.874,1.874,0,1,1-1.874,1.874A1.875,1.875,0,0,1,78.246,50.986Z"/>
  <path id="Корзина_заполнена" data-name="Корзина заполнена" class="cls-3" d="M66.5,38.375H81.625L80.25,48.625,67.625,48.5Z"/>
  <path id="Вход_copy" data-name="Вход copy" class="cls-4" d="M35,38.968v-0.96a3,3,0,0,1,3-3H49.059a3,3,0,0,1,3,3V50.985a3,3,0,0,1-3,3H38a3,3,0,0,1-3-3V50h2v2H50V37H37v1.969H35Zm-3,8.046h6.029v2.743l7.027-5.3-7.027-5.3V41.9H31.995v5.113Z"/>
  <path id="Лупа" class="cls-5" d="M17.159,46.693H16.387l-0.268-.266a6.329,6.329,0,1,0-.688.688L15.7,47.381v0.77L20.561,53l1.45-1.449Zm-5.838,0A4.372,4.372,0,1,1,15.7,42.322,4.375,4.375,0,0,1,11.321,46.693Z"/>
  <path id="Вход" class="cls-6" d="M35,8.968V8.009a3,3,0,0,1,3-3H49.059a3,3,0,0,1,3,3V20.986a3,3,0,0,1-3,3H38a3,3,0,0,1-3-3V20h2v2H50V7H37V8.968H35Zm-3,8.046h6.029v2.743l7.027-5.3-7.027-5.3V11.9H31.995v5.114Z"/>
  <path id="Лупа-2" data-name="Лупа" class="cls-1" d="M17.155,15.747H16.4l-0.263-.261a6.217,6.217,0,1,0-.675.675l0.263,0.262v0.755l4.772,4.76,1.424-1.422Zm-5.731,0a4.291,4.291,0,1,1,4.3-4.291A4.294,4.294,0,0,1,11.424,15.747Z"/>
</svg>
